<mxfile host="app.diagrams.net" agent="Mozilla/5.0 (Windows NT 10.0; Win64; x64) AppleWebKit/537.36 (KHTML, like Gecko) Chrome/136.0.0.0 Safari/537.36" version="24.8.2">
  <diagram name="Page-1" id="HpvjbGWFauFkXRhyFCKL">
    <mxGraphModel dx="2442" dy="928" grid="1" gridSize="10" guides="1" tooltips="1" connect="1" arrows="1" fold="1" page="1" pageScale="1" pageWidth="827" pageHeight="1169" math="0" shadow="0">
      <root>
        <mxCell id="0" />
        <mxCell id="1" parent="0" />
        <mxCell id="vPEbjfR3y7iEgNiq4-c0-1" value="" style="whiteSpace=wrap;html=1;aspect=fixed;" vertex="1" parent="1">
          <mxGeometry x="50" width="820" height="820" as="geometry" />
        </mxCell>
        <mxCell id="vPEbjfR3y7iEgNiq4-c0-2" value="&lt;h1 style=&quot;margin-top: 0px;&quot;&gt;Docker Container&lt;/h1&gt;" style="text;html=1;whiteSpace=wrap;overflow=hidden;rounded=0;align=center;fontStyle=4" vertex="1" parent="1">
          <mxGeometry x="325" y="10" width="260" height="40" as="geometry" />
        </mxCell>
        <mxCell id="vPEbjfR3y7iEgNiq4-c0-3" value="" style="whiteSpace=wrap;html=1;aspect=fixed;" vertex="1" parent="1">
          <mxGeometry x="95" y="70" width="720" height="720" as="geometry" />
        </mxCell>
        <mxCell id="vPEbjfR3y7iEgNiq4-c0-7" value="&lt;font style=&quot;font-size: 18px;&quot;&gt;5000&lt;/font&gt;" style="shape=process;whiteSpace=wrap;html=1;backgroundOutline=1;" vertex="1" parent="1">
          <mxGeometry x="-80" y="100" width="70" height="30" as="geometry" />
        </mxCell>
        <mxCell id="vPEbjfR3y7iEgNiq4-c0-9" style="edgeStyle=orthogonalEdgeStyle;rounded=0;orthogonalLoop=1;jettySize=auto;html=1;exitX=0;exitY=0.5;exitDx=0;exitDy=0;entryX=1;entryY=0.5;entryDx=0;entryDy=0;" edge="1" parent="1" source="vPEbjfR3y7iEgNiq4-c0-8" target="vPEbjfR3y7iEgNiq4-c0-7">
          <mxGeometry relative="1" as="geometry" />
        </mxCell>
        <mxCell id="vPEbjfR3y7iEgNiq4-c0-8" value="&lt;font style=&quot;font-size: 18px;&quot;&gt;5000&lt;/font&gt;" style="shape=process;whiteSpace=wrap;html=1;backgroundOutline=1;" vertex="1" parent="1">
          <mxGeometry x="140" y="100" width="70" height="30" as="geometry" />
        </mxCell>
        <mxCell id="vPEbjfR3y7iEgNiq4-c0-13" style="edgeStyle=orthogonalEdgeStyle;rounded=0;orthogonalLoop=1;jettySize=auto;html=1;" edge="1" parent="1" source="vPEbjfR3y7iEgNiq4-c0-11" target="vPEbjfR3y7iEgNiq4-c0-8">
          <mxGeometry relative="1" as="geometry" />
        </mxCell>
        <mxCell id="vPEbjfR3y7iEgNiq4-c0-14" style="edgeStyle=orthogonalEdgeStyle;rounded=0;orthogonalLoop=1;jettySize=auto;html=1;exitX=1;exitY=0.5;exitDx=0;exitDy=0;entryX=0;entryY=0.5;entryDx=0;entryDy=0;" edge="1" parent="1" source="vPEbjfR3y7iEgNiq4-c0-11" target="vPEbjfR3y7iEgNiq4-c0-12">
          <mxGeometry relative="1" as="geometry" />
        </mxCell>
        <mxCell id="vPEbjfR3y7iEgNiq4-c0-11" value="&lt;font style=&quot;font-size: 18px;&quot;&gt;Frontend&lt;/font&gt;" style="shape=process;whiteSpace=wrap;html=1;backgroundOutline=1;" vertex="1" parent="1">
          <mxGeometry x="270" y="160" width="120" height="70" as="geometry" />
        </mxCell>
        <mxCell id="vPEbjfR3y7iEgNiq4-c0-16" style="edgeStyle=orthogonalEdgeStyle;rounded=0;orthogonalLoop=1;jettySize=auto;html=1;exitX=0.5;exitY=1;exitDx=0;exitDy=0;entryX=0.5;entryY=0;entryDx=0;entryDy=0;" edge="1" parent="1" source="vPEbjfR3y7iEgNiq4-c0-12" target="vPEbjfR3y7iEgNiq4-c0-15">
          <mxGeometry relative="1" as="geometry" />
        </mxCell>
        <mxCell id="vPEbjfR3y7iEgNiq4-c0-12" value="&lt;font style=&quot;font-size: 18px;&quot;&gt;App&lt;/font&gt;" style="shape=process;whiteSpace=wrap;html=1;backgroundOutline=1;" vertex="1" parent="1">
          <mxGeometry x="600" y="160" width="120" height="70" as="geometry" />
        </mxCell>
        <mxCell id="vPEbjfR3y7iEgNiq4-c0-15" value="&lt;font style=&quot;font-size: 18px;&quot;&gt;Job Manager&lt;/font&gt;" style="shape=process;whiteSpace=wrap;html=1;backgroundOutline=1;" vertex="1" parent="1">
          <mxGeometry x="600" y="360" width="120" height="70" as="geometry" />
        </mxCell>
        <mxCell id="vPEbjfR3y7iEgNiq4-c0-17" value="&lt;font style=&quot;font-size: 18px;&quot;&gt;Research Agent&lt;/font&gt;" style="shape=process;whiteSpace=wrap;html=1;backgroundOutline=1;" vertex="1" parent="1">
          <mxGeometry x="140" y="360" width="120" height="70" as="geometry" />
        </mxCell>
        <mxCell id="vPEbjfR3y7iEgNiq4-c0-19" value="" style="shape=flexArrow;endArrow=classic;startArrow=classic;html=1;rounded=0;exitX=0;exitY=0.5;exitDx=0;exitDy=0;entryX=1;entryY=0.5;entryDx=0;entryDy=0;" edge="1" parent="1" source="vPEbjfR3y7iEgNiq4-c0-15" target="vPEbjfR3y7iEgNiq4-c0-17">
          <mxGeometry width="100" height="100" relative="1" as="geometry">
            <mxPoint x="450" y="460" as="sourcePoint" />
            <mxPoint x="550" y="360" as="targetPoint" />
          </mxGeometry>
        </mxCell>
        <mxCell id="vPEbjfR3y7iEgNiq4-c0-20" value="&lt;font style=&quot;font-size: 18px;&quot;&gt;Report Agent&lt;/font&gt;" style="shape=process;whiteSpace=wrap;html=1;backgroundOutline=1;" vertex="1" parent="1">
          <mxGeometry x="600" y="620" width="120" height="70" as="geometry" />
        </mxCell>
        <mxCell id="vPEbjfR3y7iEgNiq4-c0-21" value="&lt;font style=&quot;font-size: 18px;&quot;&gt;Analysis Agent&lt;/font&gt;" style="shape=process;whiteSpace=wrap;html=1;backgroundOutline=1;" vertex="1" parent="1">
          <mxGeometry x="140" y="620" width="120" height="70" as="geometry" />
        </mxCell>
        <mxCell id="vPEbjfR3y7iEgNiq4-c0-22" value="" style="shape=flexArrow;endArrow=classic;startArrow=classic;html=1;rounded=0;exitX=0.5;exitY=1;exitDx=0;exitDy=0;" edge="1" parent="1" source="vPEbjfR3y7iEgNiq4-c0-15" target="vPEbjfR3y7iEgNiq4-c0-20">
          <mxGeometry width="100" height="100" relative="1" as="geometry">
            <mxPoint x="665" y="520" as="sourcePoint" />
            <mxPoint x="325" y="520" as="targetPoint" />
          </mxGeometry>
        </mxCell>
        <mxCell id="vPEbjfR3y7iEgNiq4-c0-23" value="" style="shape=flexArrow;endArrow=classic;startArrow=classic;html=1;rounded=0;exitX=0;exitY=1;exitDx=0;exitDy=0;entryX=1;entryY=0;entryDx=0;entryDy=0;" edge="1" parent="1" source="vPEbjfR3y7iEgNiq4-c0-15" target="vPEbjfR3y7iEgNiq4-c0-21">
          <mxGeometry width="100" height="100" relative="1" as="geometry">
            <mxPoint x="500" y="520" as="sourcePoint" />
            <mxPoint x="160" y="520" as="targetPoint" />
          </mxGeometry>
        </mxCell>
      </root>
    </mxGraphModel>
  </diagram>
</mxfile>
